<?xml version="1.0" encoding="UTF-8"?>
<svg width="69px" height="35px" viewBox="0 0 69 35" version="1.1" xmlns="http://www.w3.org/2000/svg" xmlns:xlink="http://www.w3.org/1999/xlink">
    <!-- Generator: Sketch 46 (44423) - http://www.bohemiancoding.com/sketch -->
    <title>battery</title>
    <desc>Created with Sketch.</desc>
    <defs></defs>
    <g id="Page-1" stroke="none" stroke-width="1" fill="none" fill-rule="evenodd">
        <g id="Desktop-HD" transform="translate(-163.000000, -855.000000)">
            <g id="Dashboard" transform="translate(0.000000, 48.000000)">
                <g id="content" transform="translate(0.000000, 44.000000)">
                    <g id="tech-details" transform="translate(0.000000, 544.000000)">
                        <g id="medium-battery" transform="translate(163.000000, 219.000000)">
                            <g id="battery">
                                <path d="M67.6914804,1.34581981 C66.8223284,0.457141108 65.7483186,0 64.4771176,0 L10.1294706,0 C8.89592647,0 7.84965196,0.448343425 6.95253922,1.34581981 C6.05542647,2.2432962 5.60647549,3.29067156 5.60647549,4.52403894 L5.60647549,10.6570386 L2.09322549,10.6570386 C0.934544118,10.6569258 0,11.5544022 0,12.7136661 L0,12.8627755 L0,13.0877931 L0,22.0616547 L0,22.2116664 L0,22.435669 C0,23.59482 0.934544118,24.4920708 2.09322549,24.4920708 L5.60658824,24.4920708 L5.60658824,30.4750587 C5.60658824,31.7091029 6.05475,32.7567038 6.95265196,33.6541802 C7.85055392,34.5516566 8.89671569,35 10.1295833,35 L64.4771176,35 C65.7482059,35 66.8416078,34.560567 67.6915931,33.6910628 C68.5607451,32.8030608 69,31.709554 69,30.4753971 L69,4.52415173 C69,3.29078435 68.5422549,2.21532408 67.6914804,1.34581981 Z M64.8510931,30.4749459 C64.8510931,30.7366206 64.7386863,30.8491858 64.4771176,30.8491858 L10.1294706,30.8491858 C9.97951961,30.8491858 9.71795098,30.6249577 9.71795098,30.4749459 L9.71795098,4.52403894 C9.71795098,4.37481671 9.97951961,4.1507014 10.1294706,4.1507014 L64.4770049,4.1507014 C64.7385735,4.1507014 64.8509804,4.26236429 64.8509804,4.52403894 L64.8510931,30.4749459 L64.8510931,30.4749459 Z" id="Shape" fill="#000000" fill-rule="nonzero"></path>
                                <rect id="Rectangle-path" fill="#F5A623" fill-rule="nonzero" x="47" y="7" width="14" height="20"></rect>
                                <rect id="Rectangle-path" fill="#F5A623" fill-rule="nonzero" x="30" y="7" width="14" height="20"></rect>
                            </g>
                        </g>
                    </g>
                </g>
            </g>
        </g>
    </g>
</svg>