<svg width="18" height="37" viewBox="0 0 18 37" version="1.1" xmlns="http://www.w3.org/2000/svg"><title>compass</title><g stroke="none" stroke-width="1" fill="none" fill-rule="evenodd"><path d="M8.799 9.105c.189-.184.442-.122.547.153.263.651.505 1.293.757 1.945 2.61 6.743 5.22 13.485 7.83 20.217.063.174.126.347-.032.49-.158.152-.337.08-.505.01-2.8-1.162-5.598-2.312-8.398-3.484C6.21 29.597 3.411 30.748.622 31.9c-.179.071-.337.143-.505 0-.179-.153-.116-.336-.053-.51C2.927 24.058 5.79 16.724 8.651 9.38c.042-.08.063-.193.148-.274z" fill="#3C92CA" fill-rule="nonzero"/><path d="M9 35.95V1.05" stroke="#3C92CA" stroke-width="2" stroke-linecap="square"/></g></svg>