<?xml version="1.0" encoding="UTF-8"?>
<svg width="18px" height="37px" viewBox="0 0 18 37" version="1.1" xmlns="http://www.w3.org/2000/svg" xmlns:xlink="http://www.w3.org/1999/xlink">
    <!-- Generator: Sketch 46 (44423) - http://www.bohemiancoding.com/sketch -->
    <title>compass</title>
    <desc>Created with Sketch.</desc>
    <defs></defs>
    <g id="Page-1" stroke="none" stroke-width="1" fill="none" fill-rule="evenodd">
        <g id="compass" transform="translate(-16.000000, -2.000000)">
            <path d="M24.7985628,11.1047956 C24.9879763,10.9214626 25.2405277,10.9825736 25.3457574,11.2575731 C25.6088317,11.9094237 25.8508601,12.5510891 26.1034114,13.2029398 C28.7131085,19.9455195 31.3228057,26.6880993 33.9325028,33.420494 C33.9956407,33.5936418 34.0587785,33.7667896 33.9009339,33.9093819 C33.7430893,34.0621594 33.5641988,33.9908632 33.3958312,33.9195671 C30.5967206,32.7584582 27.7976099,31.6075344 24.9984993,30.4362404 C22.2099116,31.5973493 19.410801,32.748273 16.6222133,33.8991968 C16.4433228,33.9704929 16.2854782,34.0417891 16.1171107,33.8991968 C15.9382201,33.7464193 16.001358,33.5630863 16.0644958,33.3899385 C18.9267443,26.056619 21.7889927,18.7232996 24.6512412,11.3797951 C24.6933331,11.2983137 24.7143791,11.1862769 24.7985628,11.1047956 Z" id="Shape" fill="#3C92CA" fill-rule="nonzero"></path>
            <path d="M25,37.9502841 L25,3.04914935" id="Line" stroke="#3C92CA" stroke-width="2" stroke-linecap="square"></path>
        </g>
    </g>
</svg>