<?xml version="1.0" encoding="UTF-8"?>
<svg width="53px" height="53px" viewBox="0 0 53 53" version="1.1" xmlns="http://www.w3.org/2000/svg" xmlns:xlink="http://www.w3.org/1999/xlink">
    <!-- Generator: Sketch 46 (44423) - http://www.bohemiancoding.com/sketch -->
    <title>signal</title>
    <desc>Created with Sketch.</desc>
    <defs></defs>
    <g id="Page-1" stroke="none" stroke-width="1" fill="none" fill-rule="evenodd">
        <g id="Desktop-HD" transform="translate(-315.000000, -815.000000)" fill-rule="nonzero" fill="#888988">
            <g id="Dashboard" transform="translate(0.000000, 48.000000)">
                <g id="content" transform="translate(0.000000, 44.000000)">
                    <g id="tech-details" transform="translate(0.000000, 544.000000)">
                        <g id="satelites" transform="translate(294.000000, 179.000000)">
                            <g id="signal" transform="translate(21.000000, 0.000000)">
                                <path d="M36.4377135,29.8126165 L34.2294017,32.0209239 L32.0209865,29.8126165 L39.7501294,22.0833851 L30.9167788,13.2500518 L23.1875323,20.9790761 L20.9792206,18.7707686 L23.1875323,16.5624612 L6.62503882,0 L0,6.62492236 L16.562597,23.1874871 L18.7709088,20.9791796 L20.9792206,23.1874871 L17.6667012,26.5 L20.9792206,29.8125129 L18.7709088,32.0208204 L17.6667012,30.9166149 C16.4470729,32.1362408 16.4470729,34.1137075 17.6667012,35.3333333 C18.8863294,36.5529592 20.8638,36.5529592 22.0833247,35.3333333 L20.9791171,34.2291278 L23.1874288,32.0208204 L26.4999482,35.3333333 L29.8124677,32.0208204 L32.0207794,34.2291278 L29.8124677,36.4374353 L46.3750647,53 L53,46.3749741 L36.4377135,29.8126165 Z M16.5624935,18.7708722 L4.41672705,6.62492236 L6.62503882,4.41661491 L18.7709088,16.5625647 L16.5624935,18.7708722 Z M26.5001553,30.9168219 L22.0835317,26.5001035 L30.9168823,17.6667702 L35.3336094,22.0834886 L26.5001553,30.9168219 Z M34.2292982,36.4376423 L36.43761,34.2293349 L48.5835835,46.3752847 L46.3752717,48.5835921 L34.2292982,36.4376423 Z" id="Shape"></path>
                                <path d="M24.7902817,37.0468944 C23.6097558,38.2272169 22.0401753,38.8772901 20.3707416,38.8772901 C18.7012043,38.8772901 17.1317274,38.2273205 15.9512015,37.0468944 C13.5143275,34.6104404 13.5143275,30.645895 15.9512015,28.209441 L13.7414832,26 C10.0861723,29.6547846 10.0861723,35.6014473 13.7414832,39.2562319 C17.5131169,43.0272156 23.4554184,42.8002027 27,39.2562319 L24.7902817,37.0468944 Z" id="Shape"></path>
                                <path d="M29.7634939,42.1304349 C24.8306627,47.0637544 16.8041711,47.0637544 11.8712352,42.1304349 C6.28757059,36.5463361 7.65109183,28.4571515 11.8712352,24.23668 L9.63472903,22 C4.02642756,27.6087376 2.90896078,37.6408237 9.63472903,44.3671149 C15.0335645,49.7663701 25.0914993,51.2762576 32,44.3671149 L29.7634939,42.1304349 Z" id="Shape"></path>
                            </g>
                        </g>
                    </g>
                </g>
            </g>
        </g>
    </g>
</svg>