<?xml version="1.0" encoding="UTF-8"?>
<svg width="58px" height="58px" viewBox="0 0 58 58" version="1.1" xmlns="http://www.w3.org/2000/svg" xmlns:xlink="http://www.w3.org/1999/xlink">
    <!-- Generator: Sketch 46 (44423) - http://www.bohemiancoding.com/sketch -->
    <title>Dashboard icon</title>
    <desc>Created with Sketch.</desc>
    <defs>
        <circle id="path-1" cx="25" cy="25" r="25"></circle>
        <filter x="-14.0%" y="-10.0%" width="128.0%" height="128.0%" filterUnits="objectBoundingBox" id="filter-2">
            <feOffset dx="0" dy="2" in="SourceAlpha" result="shadowOffsetOuter1"></feOffset>
            <feGaussianBlur stdDeviation="2" in="shadowOffsetOuter1" result="shadowBlurOuter1"></feGaussianBlur>
            <feColorMatrix values="0 0 0 0 0   0 0 0 0 0   0 0 0 0 0  0 0 0 0.5 0" type="matrix" in="shadowBlurOuter1"></feColorMatrix>
        </filter>
    </defs>
    <g id="Page-1" stroke="none" stroke-width="1" fill="none" fill-rule="evenodd">
        <g id="Desktop-HD" transform="translate(-20.000000, -72.000000)">
            <g id="Dashboard-icon" transform="translate(24.000000, 74.000000)">
                <g>
                    <g id="Oval">
                        <use fill="black" fill-opacity="1" filter="url(#filter-2)" xlink:href="#path-1"></use>
                        <use fill="#039BE5" fill-rule="evenodd" xlink:href="#path-1"></use>
                    </g>
                    <g id="dashboard" transform="translate(10.000000, 10.000000)" fill="#FFFFFF">
                        <g id="Shape">
                            <g fill-rule="nonzero">
                                <path d="M25.4311333,4.5688794 C25.0325872,4.17039314 24.4070294,4.11163181 23.9411597,4.42907201 C22.1861729,5.62529316 13.3834413,11.6404711 12.4373928,12.5864581 C11.06547,13.9584355 11.06547,16.1906623 12.4373928,17.5626396 C13.1233542,18.2485403 14.0244813,18.5915493 14.925491,18.5915493 C15.8265008,18.5915493 16.7275691,18.2485403 17.4135892,17.5626396 C18.3595791,16.6165939 24.3747164,7.81388877 25.5709998,6.0589072 C25.8883236,5.59309758 25.8296208,4.96748295 25.4311333,4.5688794 Z M15.7547789,15.9038929 C15.2975299,16.3612578 14.5533934,16.3612578 14.0961445,15.9038929 C13.6388369,15.4466453 13.6387782,14.7027456 14.0959099,14.2454394 C14.4634919,13.8821982 16.9627325,12.0997712 20.0376833,9.96237186 C17.9003362,13.0373135 16.1179039,15.5364293 15.7547789,15.9038929 Z"></path>
                                <path d="M5.38061495,20.4725136 L3.94023825,21.1789721 C2.88629555,19.2877704 2.33353859,17.1769002 2.33353859,15.0160547 C2.33353859,13.4328581 2.62388913,11.9165299 3.15377741,10.5181011 L4.80423092,11.3140693 C4.96699524,11.3925517 5.13880202,11.4297399 5.3080419,11.4297399 C5.74283848,11.4297399 6.1602502,11.1842626 6.36087618,10.7636957 C6.63950069,10.179536 6.39447913,9.47876724 5.81342802,9.19856531 L4.18391802,8.41268601 C6.20925451,5.09155703 9.71347108,2.77609312 13.767936,2.40010519 L13.767936,4.16455028 C13.767936,4.81246958 14.2902987,5.33767955 14.9347053,5.33767955 C15.579112,5.33767955 16.1014746,4.81246958 16.1014746,4.16455028 L16.1014746,2.39922534 C17.4915636,2.52645121 18.8366152,2.88237863 20.1134692,3.4619045 C20.7006459,3.72849812 21.3917816,3.46577582 21.65693,2.87539851 C21.9220783,2.28484524 21.660897,1.59005942 21.0735453,1.32346579 C19.1386918,0.445319873 17.0732768,0 14.934647,0 C10.9454628,0 7.19505789,1.56190432 4.3742181,4.39806166 C1.55349498,7.23427765 0,11.0051257 0,15.0160547 C0,17.9799659 0.874960296,20.8625791 2.53031424,23.3520181 C2.75328385,23.6872398 3.12192461,23.8732394 3.50100795,23.8732394 C3.67333978,23.8732394 3.84788847,23.8348195 4.01187789,23.7544014 L6.40375495,22.5812722 C6.98293923,22.2971989 7.22341038,21.5949051 6.94087719,21.0125637 C6.65834401,20.430281 5.95979923,20.1885577 5.38061495,20.4725136 Z"></path>
                                <path d="M28.6715394,8.9264377 C28.4040103,8.339194 27.706751,8.07785976 27.1138186,8.34310234 C26.5211217,8.60822826 26.2575373,9.29918899 26.5251252,9.88643269 C27.2682483,11.5173217 27.6449909,13.2595694 27.6449909,15.0647589 C27.6449909,17.2169164 27.085323,19.3195487 26.0185628,21.2024969 L24.500936,20.4864527 C23.9138911,20.2094851 23.2112153,20.4564109 22.931558,21.0382296 C22.6519595,21.6199316 22.9012961,22.3161424 23.4884587,22.5931683 L25.9612183,23.759839 C26.1238905,23.8365476 26.2963361,23.8732394 26.4668387,23.8732394 C26.8495277,23.8732394 27.2216191,23.6880305 27.4463459,23.3548876 C29.1169893,20.8790957 30,18.0123525 30,15.0647589 C30,12.9263099 29.5530193,10.8610694 28.6715394,8.9264377 Z"></path>
                            </g>
                        </g>
                    </g>
                </g>
            </g>
        </g>
    </g>
</svg>