<?xml version="1.0" encoding="UTF-8"?>
<svg width="53px" height="50px" viewBox="0 0 53 50" version="1.1" xmlns="http://www.w3.org/2000/svg" xmlns:xlink="http://www.w3.org/1999/xlink">
    <!-- Generator: Sketch 46 (44423) - http://www.bohemiancoding.com/sketch -->
    <title>automatic</title>
    <desc>Created with Sketch.</desc>
    <defs></defs>
    <g id="Page-1" stroke="none" stroke-width="1" fill="none" fill-rule="evenodd">
        <g id="Desktop-HD" transform="translate(-236.000000, -343.000000)" fill-rule="nonzero" fill="#000000">
            <g id="Dashboard" transform="translate(0.000000, 48.000000)">
                <g id="content" transform="translate(0.000000, 44.000000)">
                    <g id="mode" transform="translate(236.000000, 213.000000)">
                        <g id="automatic" transform="translate(0.000000, 38.000000)">
                            <path d="M27.1525625,14.4237292 C26.9747917,14.0262292 26.5795,13.7700625 26.1444583,13.7700625 C25.7094167,13.7700625 25.314125,14.0262292 25.1363542,14.4237292 L17.655625,31.1673125 C17.4060833,31.7238125 17.6567292,32.3774792 18.2132292,32.6259167 C18.3600833,32.6910625 18.5124583,32.7219792 18.662625,32.7219792 C19.0855208,32.7219792 19.4885417,32.4779583 19.6718333,32.0672083 L26.1433542,17.5794375 L29.9250892,26.0391757 C30.1746308,26.5956757 30.8238808,26.8463216 31.3836933,26.5967799 C31.9401933,26.3483424 32.1908392,25.6946757 31.9412975,25.1381757 L27.1525625,14.4237292 Z" id="Shape"></path>
                            <path d="M21.279934,24.9685208 C21.279934,25.5780208 21.7734965,26.0726875 22.3841006,26.0726875 L29.9361667,26.0726875 L32.614875,32.0683125 C32.7981667,32.4790625 33.2011875,32.7230833 33.6240833,32.7230833 C33.77425,32.7230833 33.926625,32.6921667 34.0734792,32.6270208 C34.6299792,32.3774792 34.8795208,31.7249167 34.6310833,31.1684167 L31.660875,24.519125 C31.4831042,24.121625 31.0878125,23.8654583 30.6527708,23.8654583 L22.3841006,23.8654583 C21.7746006,23.8643542 21.279934,24.3590208 21.279934,24.9685208 Z" id="Shape"></path>
                            <path d="M52.2679375,16.7524167 L49.5318125,2.52854167 C49.4545208,2.12772917 49.1619167,1.80089583 48.7710417,1.68164583 C48.3812708,1.5601875 47.9550625,1.66729167 47.666875,1.95658333 L42.6870833,6.93747917 C33.0753125,-1.85610417 18.1039167,-1.5999375 8.80352083,7.70045833 C4.39127083,12.1127083 1.84395833,17.9769375 1.63527083,24.2132708 C1.61429167,24.8227708 2.09129167,25.334 2.70189583,25.353875 C3.33127083,25.353875 3.82152083,24.8835 3.84139583,24.28725 C4.03352083,18.6129375 6.3500625,13.2765 10.3648125,9.26175 C19.0678542,0.560916667 33.2221667,0.563125 41.923,9.26175 C42.3370625,9.6758125 43.0702292,9.6758125 43.4842917,9.26175 L47.7552083,4.98972917 L49.7912917,15.56875 L39.2122708,13.5337708 L40.6521042,12.0939375 C43.4842917,9.26175 44.7508722,7.81937602 44.3191431,7.38764685 C43.8874139,6.95591769 43.9036412,5.99398929 41.6009968,8.15406839 L36.179125,13.4443333 C35.8898333,13.733625 35.7849375,14.157625 35.9041875,14.5485 C36.0234375,14.939375 36.3491667,15.2319792 36.7521875,15.3081667 L50.9760625,18.0442917 C51.3349167,18.11275 51.7059167,18.000125 51.9653958,17.7406458 C52.2226667,17.4822708 52.3375,17.1112708 52.2679375,16.7524167 Z" id="Shape"></path>
                            <path d="M49.5848125,24.7267083 C48.9554375,24.7256042 48.4651875,25.1959792 48.4453125,25.7922292 C48.2542917,31.4665417 45.93775,36.801875 41.923,40.8177292 C33.2210625,49.5185625 19.06675,49.5163542 10.3648125,40.8177292 C9.95075,40.4036667 9.21758333,40.4036667 8.80352083,40.8177292 L4.53260417,45.08975 L2.49652083,34.5107292 L13.0755417,36.5457083 L8.80352083,40.8177292 C8.37179167,41.2483542 7.3460812,43.0076978 7.77781037,43.439427 C8.20953953,43.8711561 9.169,43.5748333 9.60072917,43.1431042 L16.1086875,36.6351458 C16.3979792,36.3458542 16.502875,35.9218542 16.383625,35.5309792 C16.264375,35.1401042 15.9386458,34.8475 15.535625,34.7713125 L1.31285417,32.0351875 C0.952895833,31.965625 0.583,32.0804583 0.323520833,32.3388333 C0.0651458333,32.5972083 -0.0496875,32.9682083 0.019875,33.3281667 L2.756,47.5520417 C2.83329167,47.9528542 3.12589583,48.2796875 3.51677083,48.3989375 C3.90654167,48.5192917 4.33164583,48.4121875 4.6209375,48.124 L9.60072917,43.1431042 C14.27025,47.415125 20.2073542,49.5505833 26.14225,49.5505833 C32.42275,49.5505833 38.7021458,47.1600625 43.4831875,42.3790208 C47.8965417,37.9656667 50.44275,32.1014375 50.6503333,25.8662083 C50.6724167,25.2578125 50.1954167,24.7465833 49.5848125,24.7267083 Z" id="Shape"></path>
                        </g>
                    </g>
                </g>
            </g>
        </g>
    </g>
</svg>