<?xml version="1.0" encoding="UTF-8"?>
<svg width="53px" height="35px" viewBox="0 0 53 35" version="1.1" xmlns="http://www.w3.org/2000/svg" xmlns:xlink="http://www.w3.org/1999/xlink">
    <!-- Generator: Sketch 46 (44423) - http://www.bohemiancoding.com/sketch -->
    <title>manual</title>
    <desc>Created with Sketch.</desc>
    <defs></defs>
    <g id="Page-1" stroke="none" stroke-width="1" fill="none" fill-rule="evenodd">
        <g id="Desktop-HD" transform="translate(-236.000000, -351.000000)" fill-rule="nonzero" fill="#000000">
            <g id="Dashboard" transform="translate(0.000000, 48.000000)">
                <g id="content" transform="translate(0.000000, 44.000000)">
                    <g id="mode" transform="translate(236.000000, 213.000000)">
                        <g id="manual" transform="translate(0.000000, 46.000000)">
                            <path d="M52.8309596,24.0279286 C52.6992826,20.9993571 52.1725745,17.6415932 51.3825124,14.4813447 C50.5924503,11.4527733 49.6048727,8.62171739 48.4197795,6.44904658 C43.8110839,-1.64909006 38.8073571,-0.398158385 32.8160528,1.18196584 C30.906736,1.6428354 28.8657422,2.16954348 26.7589099,2.36705901 L26.1005248,2.36705901 C23.9936925,2.16954348 21.9526988,1.6428354 20.043382,1.18196584 C14.0520776,-0.332319876 9.04835093,-1.64909006 4.43965528,6.51488509 C3.25456211,8.6875559 2.20114596,11.5186118 1.47692236,14.5471832 C0.686860248,17.7074317 0.160152174,21.0651957 0.0284751553,24.0937671 C-0.103201863,27.4515311 0.225990683,29.8875559 0.950214286,31.5993571 C1.67443789,33.1794814 2.72785404,34.167059 4.11046273,34.5620901 C5.36139441,34.8912826 6.80984161,34.7596056 8.32412733,34.1012205 C10.8918292,33.0478043 13.8545621,30.809295 16.7514565,28.1099161 C18.7924503,26.1347609 22.6110839,25.1471832 26.4297174,25.1471832 C30.2483509,25.1471832 34.0669845,26.1347609 36.1079783,28.1099161 C39.0048727,30.809295 41.9676056,33.0478043 44.5353075,34.1012205 C46.0495932,34.6937671 47.4980404,34.8912826 48.748972,34.5620901 C50.0657422,34.167059 51.1849969,33.2453199 51.9092205,31.5335186 C52.6334441,29.8875559 52.9626366,27.4515311 52.8309596,24.0279286 Z M49.6707112,30.6117795 C49.2756801,31.5335186 48.748972,32.0602267 48.090587,32.2577422 C47.3663634,32.4552578 46.4446242,32.3235807 45.3912081,31.9285497 C43.0868602,31.0068106 40.3874814,28.9658168 37.753941,26.4639534 C35.2520776,23.9620901 30.8408975,22.7111584 26.4297174,22.7111584 C22.0185373,22.7111584 17.6073571,23.9620901 15.0396553,26.3322764 C12.3402764,28.8341398 9.64089752,30.940972 7.4023882,31.7968727 C6.34897205,32.1919037 5.42723292,32.3894193 4.70300932,32.1260652 C4.04462422,31.9285497 3.51791615,31.4018416 3.12288509,30.4801025 C2.59617702,29.2291708 2.33282298,27.188177 2.4645,24.1596056 C2.59617702,21.3285497 3.05704658,18.1024627 3.8471087,15.0738913 C4.5713323,12.2428354 5.49307143,9.60929503 6.61232609,7.63413975 C10.2334441,1.11612733 14.4471087,2.16954348 19.4508354,3.48631366 C21.4918292,4.01302174 23.5986615,4.53972981 25.9030093,4.73724534 C25.9688478,4.73724534 25.9688478,4.73724534 26.0346863,4.73724534 L26.7589099,4.73724534 C26.8247484,4.73724534 26.8247484,4.73724534 26.890587,4.73724534 C29.2607733,4.53972981 31.3676056,4.01302174 33.4085994,3.48631366 C38.4123261,2.23538199 42.6259907,1.11612733 46.2471087,7.63413975 C47.3663634,9.60929503 48.2881025,12.1769969 49.0123261,15.0738913 C49.7365497,18.1024627 50.2632578,21.2627112 50.3949348,24.1596056 C50.5266118,27.188177 50.2632578,29.2291708 49.6707112,30.6117795 Z" id="Shape"></path>
                            <path d="M20.3725745,11.1894193 C19.7141894,10.5968727 18.9241273,10.1360031 18.0023882,10.0701646 C17.9365497,9.21426398 17.5415186,8.35836335 16.948972,7.76581677 L16.8831335,7.69997826 C16.1589099,6.97575466 15.2371708,6.5807236 14.1837547,6.5807236 C13.1303385,6.5807236 12.1427609,7.04159317 11.4843758,7.69997826 C10.8918292,8.29252484 10.4309596,9.14842547 10.3651211,10.0701646 C9.44338199,10.1360031 8.65331988,10.5310342 7.99493478,11.1235807 L7.92909627,11.1894193 C7.20487267,11.9136429 6.80984161,12.835382 6.80984161,13.8887981 C6.80984161,14.9422143 7.27071118,15.9297919 7.92909627,16.588177 C8.58748137,17.2465621 9.37754348,17.6415932 10.3651211,17.7074317 C10.4309596,18.6291708 10.8259907,19.4850714 11.4843758,20.077618 C12.2085994,20.8018416 13.1303385,21.1968727 14.1837547,21.1968727 C15.2371708,21.1968727 16.2247484,20.7360031 16.8831335,20.077618 C17.4756801,19.4192329 17.9365497,18.6291708 18.0023882,17.7074317 C18.9241273,17.6415932 19.780028,17.2465621 20.3725745,16.588177 C21.0967981,15.8639534 21.4918292,14.9422143 21.4918292,13.8887981 C21.4918292,12.835382 21.0309596,11.8478043 20.3725745,11.1894193 Z M18.7266118,14.8763758 C18.4632578,15.1397298 18.1340652,15.2714068 17.7390342,15.2714068 L16.817295,15.2714068 C16.1589099,15.2714068 15.5663634,15.7981149 15.5663634,16.5223385 L15.5663634,17.3782391 C15.5663634,17.7732702 15.4346863,18.1024627 15.1713323,18.3658168 C14.9079783,18.6291708 14.5787857,18.7608478 14.1837547,18.7608478 C13.7887236,18.7608478 13.4595311,18.6291708 13.196177,18.3658168 C12.932823,18.1024627 12.801146,17.7732702 12.801146,17.3782391 L12.801146,16.4565 C12.801146,15.7981149 12.2744379,15.2055683 11.5502143,15.2055683 L10.6284752,15.2055683 C10.2334441,15.2055683 9.90425155,15.0738913 9.64089752,14.8105373 C9.44338199,14.6130217 9.24586646,14.2838292 9.24586646,13.8887981 C9.24586646,13.4937671 9.37754348,13.1645745 9.64089752,12.9012205 C9.64089752,12.9012205 9.64089752,12.9012205 9.70673602,12.835382 C9.97009006,12.6378665 10.2992826,12.5061894 10.6284752,12.5061894 L11.5502143,12.5061894 C12.2085994,12.5061894 12.801146,11.9794814 12.801146,11.2552578 L12.801146,10.3335186 C12.801146,9.93848758 12.932823,9.60929503 13.196177,9.34594099 C13.4595311,9.08258696 13.7887236,8.95090994 14.1837547,8.95090994 C14.5787857,8.95090994 14.9079783,9.08258696 15.1713323,9.34594099 C15.1713323,9.34594099 15.1713323,9.34594099 15.2371708,9.4117795 C15.4346863,9.67513354 15.5663634,10.0043261 15.5663634,10.3335186 L15.5663634,11.2552578 C15.5663634,11.9136429 16.0930714,12.5061894 16.817295,12.5061894 L17.7390342,12.5061894 C18.1340652,12.5061894 18.4632578,12.6378665 18.7266118,12.9012205 C18.9899658,13.1645745 19.1216429,13.4937671 19.1216429,13.8887981 C19.1216429,14.2838292 18.9899658,14.6130217 18.7266118,14.8763758 Z" id="Shape"></path>
                            <circle id="Oval" cx="37.885618" cy="9.21426398" r="2.30434783"></circle>
                            <circle id="Oval" cx="37.885618" cy="18.5633323" r="2.30434783"></circle>
                            <circle id="Oval" cx="33.2110839" cy="13.8887981" r="2.30434783"></circle>
                            <circle id="Oval" cx="42.5601522" cy="13.8887981" r="2.30434783"></circle>
                        </g>
                    </g>
                </g>
            </g>
        </g>
    </g>
</svg>