<?xml version="1.0" encoding="iso-8859-1"?>
<!-- Generator: Adobe Illustrator 19.0.0, SVG Export Plug-In . SVG Version: 6.00 Build 0)  -->
<svg version="1.1" id="Capa_1" xmlns="http://www.w3.org/2000/svg" xmlns:xlink="http://www.w3.org/1999/xlink" x="0px" y="0px"
	 viewBox="0 0 496 496" style="enable-background:new 0 0 496 496;" xml:space="preserve">
<g>
	<g>
		<g>
			<path d="M440,272H339.72l-13.04,19.56l13.312,8.872L348.28,288H440c13.232,0,24-10.768,24-24s-10.768-24-24-24h-40v-32h56v-16
				h-40v-8c0-13.232-10.768-24-24-24s-24,10.768-24,24v8h-40v16h56v32h-59.056l-24-48H232v16h59.056l16,32H280v16h160
				c4.416,0,8,3.584,8,8C448,268.416,444.416,272,440,272z M384,184c0-4.408,3.584-8,8-8c4.416,0,8,3.592,8,8v8h-16V184z"/>
			<rect x="192" y="288" width="16" height="16"/>
			<rect x="224" y="288" width="40" height="16"/>
			<path d="M104,160c-13.232,0-24,10.768-24,24v8H40v16h56v32H56c-13.232,0-24,10.768-24,24s10.768,24,24,24h91.72l32,48H296v-16
				H188.28l-32-48H56c-4.416,0-8-3.584-8-8c0-4.416,3.584-8,8-8h168v-16h-35.056l6.208-12.424l-14.312-7.16L171.056,240H112v-32h56
				v-16h-40v-8C128,170.768,117.232,160,104,160z M112,192H96v-8c0-4.408,3.584-8,8-8s8,3.592,8,8V192z"/>
			
				<rect x="-91.407" y="239.994" transform="matrix(-0.7071 -0.7071 0.7071 -0.7071 247.9861 598.7079)" width="678.793" height="16"/>
			<path d="M248,16c127.92,0,232,104.072,232,232c0,53.4-18.6,105.528-52.376,146.808L440,404.944
				c36.12-44.128,56-99.864,56-156.944C496,111.256,384.752,0,248,0C190.92,0,135.176,19.888,91.056,56L101.2,68.384
				C142.472,34.6,194.6,16,248,16z"/>
			<path d="M248,480C120.08,480,16,375.92,16,248c0-53.4,18.6-105.536,52.376-146.808L56,91.056C19.88,135.176,0,190.912,0,248
				c0,136.752,111.248,248,248,248c57.08,0,112.824-19.88,156.944-56L394.8,427.624C353.528,461.4,301.4,480,248,480z"/>
		</g>
	</g>
</g>
<g>
</g>
<g>
</g>
<g>
</g>
<g>
</g>
<g>
</g>
<g>
</g>
<g>
</g>
<g>
</g>
<g>
</g>
<g>
</g>
<g>
</g>
<g>
</g>
<g>
</g>
<g>
</g>
<g>
</g>
</svg>
