<svg width="512" height="512" xmlns="http://www.w3.org/2000/svg">

 <g>
  <title>background</title>
  <rect fill="none" id="canvas_background" height="402" width="582" y="-1" x="-1"/>
 </g>
 <g>
  <title>Layer 1</title>
  <g transform="rotate(-45 256,353.037841796875) " id="svg_1">
   <g id="svg_2">
    <path stroke-width="0" fill="#2F8565" id="svg_3" d="m503.842031,105.370509c-0.03,-0.03 -0.054,-0.062 -0.084,-0.092s-0.062,-0.054 -0.092,-0.082c-7.968,-7.902 -19.398,-10.276 -29.86,-6.185l-456.017,178.307c-12.056,4.713 -19.119,16.516 -17.58,29.367c1.543,12.852 11.196,22.649 24.023,24.378l222.877,30.058c0.417,0.057 0.751,0.389 0.808,0.809l30.058,222.875c1.729,12.827 11.526,22.482 24.378,24.023c1.174,0.141 2.337,0.208 3.489,0.208c11.458,0 21.594,-6.834 25.878,-17.787l178.309,-456.022c4.089,-10.46 1.716,-21.888 -6.187,-29.857zm-475.995,198.92c-0.5,-0.068 -0.725,-0.097 -0.812,-0.821c-0.086,-0.724 0.126,-0.808 0.593,-0.989l426.654,-166.827l-199.555,199.557c-1.301,-0.377 -226.88,-30.92 -226.88,-30.92zm278.711,277.12c-0.182,0.467 -0.255,0.682 -0.989,0.592c-0.723,-0.086 -0.754,-0.313 -0.82,-0.81c0,0 -30.543,-225.579 -30.92,-226.88l199.555,-199.556l-166.826,426.654z"/>
   </g>
  </g>
  <g id="svg_4"/>
  <g id="svg_5"/>
  <g id="svg_6"/>
  <g id="svg_7"/>
  <g id="svg_8"/>
  <g id="svg_9"/>
  <g id="svg_10"/>
  <g id="svg_11"/>
  <g id="svg_12"/>
  <g id="svg_13"/>
  <g id="svg_14"/>
  <g id="svg_15"/>
  <g id="svg_16"/>
  <g id="svg_17"/>
  <g id="svg_18"/>
  <path fill-opacity="0.2" id="svg_19" d="m241,30l-197,440l6,20l200,-146c1,0 193,142 193,142c0,0 22,-8 21,-8c1,0 -195,-450 -195,-450c0,0 -28,2 -28,2z" stroke-opacity="null" stroke-width="null" stroke="null" fill="#2F8565"/>
 </g>
</svg>